{
  "source": "C:\\Users\\Peter\\Desktop\\stuff\\MIUN\\quantitative_research\\video_compression\\videos\\BVI-HD\\BVI-HD_CDVL_videos\\ORIG\\Hamster_1920x1080_60fps.mp4",
  "output": "C:\\Users\\Peter\\Desktop\\stuff\\MIUN\\quantitative_research\\video_compression\\compressed_videos\\BVI-HD\\vp9\\8\\Hamster_1920x1080_60fps_vp9.webm",
  "codec": "vp9",
  "ok": "Input #0, mov,mp4,m4a,3gp,3g2,mj2, from 'C:\\Users\\Peter\\Desktop\\stuff\\MIUN\\quantitative_research\\video_compression\\videos\\BVI-HD\\BVI-HD_CDVL_videos\\ORIG\\Hamster_1920x1080_60fps.mp4':\n  Metadata:\n    major_brand     : isom\n    minor_version   : 512\n    compatible_brands: isomiso2avc1mp41\n    encoder         : Lavf54.28.101\n  Duration: 00:00:05.00, start: 0.000000, bitrate: 208485 kb/s\n  Stream #0:0[0x1](und): Video: h264 (High 4:4:4 Predictive) (avc1 / 0x31637661), yuv420p(progressive), 1920x1080, 208481 kb/s, 60 fps, 60 tbr, 60 tbn (default)\n    Metadata:\n      handler_name    : VideoHandler\n      vendor_id       : [0][0][0][0]\n[out#0/webm @ 000002a8951e9780] Codec AVOption b:a (set bitrate (in bits/s)) has not been used for any stream. The most likely reason is either wrong type (e.g. a video option with no video streams) or that it is a private option of some decoder which was not actually used for any stream.\nStream mapping:\n  Stream #0:0 -> #0:0 (h264 (native) -> vp9 (libvpx-vp9))\nPress [q] to stop, [?] for help\n[libvpx-vp9 @ 000002a89596a040] v1.15.2-100-g40561f514\nOutput #0, webm, to 'C:\\Users\\Peter\\Desktop\\stuff\\MIUN\\quantitative_research\\video_compression\\compressed_videos\\BVI-HD\\vp9\\8\\Hamster_1920x1080_60fps_vp9.webm':\n  Metadata:\n    major_brand     : isom\n    minor_version   : 512\n    compatible_brands: isomiso2avc1mp41\n    encoder         : Lavf62.3.100\n  Stream #0:0(und): Video: vp9, yuv420p(tv, progressive), 1920x1080, q=2-31, 8000 kb/s, 60 fps, 1k tbn (default)\n    Metadata:\n      encoder         : Lavc62.11.100 libvpx-vp9\n      handler_name    : VideoHandler\n      vendor_id       : [0][0][0][0]\n    Side data:\n      cpb: bitrate max/min/avg: 0/0/0 buffer size: 8000000 vbv_delay: N/A\nframe=    1 fps=0.0 q=12.0 size=       1KiB time=00:00:00.01 bitrate= 303.8kbits/s speed=0.0327x elapsed=0:00:00.51    \nframe=    7 fps=6.7 q=29.0 size=       1KiB time=00:00:00.11 bitrate=  43.4kbits/s speed=0.112x elapsed=0:00:01.04    \nframe=   12 fps=7.6 q=33.0 size=       1KiB time=00:00:00.18 bitrate=  27.6kbits/s speed=0.116x elapsed=0:00:01.57    \nframe=   15 fps=7.0 q=32.0 size=       1KiB time=00:00:00.23 bitrate=  21.7kbits/s speed=0.109x elapsed=0:00:02.14    \nframe=   19 fps=7.0 q=30.0 size=       1KiB time=00:00:00.31 bitrate=  16.0kbits/s speed=0.117x elapsed=0:00:02.71    \nframe=   23 fps=7.0 q=30.0 size=       1KiB time=00:00:00.38 bitrate=  13.2kbits/s speed=0.117x elapsed=0:00:03.28    \nframe=   27 fps=7.1 q=31.0 size=       1KiB time=00:00:00.45 bitrate=  11.3kbits/s speed=0.118x elapsed=0:00:03.80    \nframe=   31 fps=7.1 q=32.0 size=       1KiB time=00:00:00.51 bitrate=   9.8kbits/s speed=0.119x elapsed=0:00:04.35    \nframe=   36 fps=7.4 q=32.0 size=       1KiB time=00:00:00.60 bitrate=   8.4kbits/s speed=0.123x elapsed=0:00:04.88    \nframe=   39 fps=7.2 q=30.0 size=       1KiB time=00:00:00.65 bitrate=   7.8kbits/s speed=0.12x elapsed=0:00:05.43    \nframe=   43 fps=7.2 q=30.0 size=       1KiB time=00:00:00.70 bitrate=   7.2kbits/s speed=0.117x elapsed=0:00:05.96    \nframe=   46 fps=7.0 q=30.0 size=       1KiB time=00:00:00.76 bitrate=   6.6kbits/s speed=0.116x elapsed=0:00:06.58    \nframe=   49 fps=6.9 q=15.0 size=       1KiB time=00:00:00.81 bitrate=   6.2kbits/s speed=0.114x elapsed=0:00:07.14    \nframe=   52 fps=6.7 q=29.0 size=       1KiB time=00:00:00.86 bitrate=   5.8kbits/s speed=0.112x elapsed=0:00:07.74    \nframe=   55 fps=6.6 q=29.0 size=       1KiB time=00:00:00.91 bitrate=   5.5kbits/s speed=0.11x elapsed=0:00:08.29    \nframe=   59 fps=6.7 q=28.0 size=       1KiB time=00:00:00.98 bitrate=   5.1kbits/s speed=0.111x elapsed=0:00:08.86    \nframe=   62 fps=6.6 q=29.0 size=       1KiB time=00:00:01.03 bitrate=   4.9kbits/s speed=0.11x elapsed=0:00:09.40    \nframe=   66 fps=6.7 q=29.0 size=       1KiB time=00:00:01.10 bitrate=   4.6kbits/s speed=0.111x elapsed=0:00:09.91    \nframe=   69 fps=6.6 q=31.0 size=       1KiB time=00:00:01.15 bitrate=   4.4kbits/s speed=0.11x elapsed=0:00:10.47    \nframe=   72 fps=6.5 q=31.0 size=       1KiB time=00:00:01.20 bitrate=   4.2kbits/s speed=0.108x elapsed=0:00:11.06    \nframe=   75 fps=6.5 q=30.0 size=       1KiB time=00:00:01.25 bitrate=   4.1kbits/s speed=0.108x elapsed=0:00:11.60    \nframe=   77 fps=6.3 q=31.0 size=       1KiB time=00:00:01.28 bitrate=   3.9kbits/s speed=0.105x elapsed=0:00:12.18    \nframe=   80 fps=6.3 q=33.0 size=       1KiB time=00:00:01.33 bitrate=   3.8kbits/s speed=0.105x elapsed=0:00:12.73    \nframe=   84 fps=6.3 q=33.0 size=       1KiB time=00:00:01.40 bitrate=   3.6kbits/s speed=0.105x elapsed=0:00:13.27    \nframe=   87 fps=6.3 q=32.0 size=       1KiB time=00:00:01.45 bitrate=   3.5kbits/s speed=0.104x elapsed=0:00:13.89    \nframe=   91 fps=6.3 q=33.0 size=       1KiB time=00:00:01.50 bitrate=   3.4kbits/s speed=0.104x elapsed=0:00:14.43    \nframe=   94 fps=6.3 q=33.0 size=       1KiB time=00:00:01.56 bitrate=   3.2kbits/s speed=0.104x elapsed=0:00:15.02    \nframe=   96 fps=6.2 q=33.0 size=       1KiB time=00:00:01.60 bitrate=   3.2kbits/s speed=0.103x elapsed=0:00:15.59    \nframe=   99 fps=6.1 q=37.0 size=       1KiB time=00:00:01.65 bitrate=   3.1kbits/s speed=0.102x elapsed=0:00:16.17    \nframe=  102 fps=6.1 q=37.0 size=       1KiB time=00:00:01.70 bitrate=   3.0kbits/s speed=0.101x elapsed=0:00:16.75    \nframe=  105 fps=6.1 q=37.0 size=       1KiB time=00:00:01.75 bitrate=   2.9kbits/s speed=0.101x elapsed=0:00:17.29    \nframe=  108 fps=6.0 q=37.0 size=       1KiB time=00:00:01.80 bitrate=   2.8kbits/s speed=0.101x elapsed=0:00:17.85    \nframe=  112 fps=6.1 q=36.0 size=       1KiB time=00:00:01.86 bitrate=   2.7kbits/s speed=0.101x elapsed=0:00:18.39    \nframe=  115 fps=6.1 q=24.0 size=       1KiB time=00:00:01.91 bitrate=   2.6kbits/s speed=0.101x elapsed=0:00:18.97    \nframe=  118 fps=6.0 q=36.0 size=       1KiB time=00:00:01.95 bitrate=   2.6kbits/s speed=0.0999x elapsed=0:00:19.52    \nframe=  121 fps=6.0 q=23.0 size=       1KiB time=00:00:02.01 bitrate=   2.5kbits/s speed= 0.1x elapsed=0:00:20.16    \nframe=  125 fps=6.0 q=33.0 size=       1KiB time=00:00:02.06 bitrate=   2.5kbits/s speed=0.0994x elapsed=0:00:20.79    \nframe=  127 fps=5.9 q=34.0 size=       1KiB time=00:00:02.11 bitrate=   2.4kbits/s speed=0.0987x elapsed=0:00:21.43    \nframe=  129 fps=5.9 q=23.0 size=       1KiB time=00:00:02.15 bitrate=   2.4kbits/s speed=0.0979x elapsed=0:00:21.95    \nframe=  134 fps=5.9 q=35.0 size=    1536KiB time=00:00:02.23 bitrate=5634.1kbits/s speed=0.0991x elapsed=0:00:22.52    \nframe=  138 fps=6.0 q=32.0 size=    1536KiB time=00:00:02.30 bitrate=5470.8kbits/s speed=0.0994x elapsed=0:00:23.13    \nframe=  141 fps=5.9 q=32.0 size=    1536KiB time=00:00:02.33 bitrate=5392.7kbits/s speed=0.0983x elapsed=0:00:23.72    \nframe=  144 fps=5.9 q=31.0 size=    1536KiB time=00:00:02.40 bitrate=5242.9kbits/s speed=0.0987x elapsed=0:00:24.32    \nframe=  147 fps=5.9 q=33.0 size=    1536KiB time=00:00:02.45 bitrate=5135.9kbits/s speed=0.0985x elapsed=0:00:24.86    \nframe=  151 fps=5.9 q=32.0 size=    1536KiB time=00:00:02.51 bitrate=4999.8kbits/s speed=0.0991x elapsed=0:00:25.38    \nframe=  155 fps=6.0 q=32.0 size=    1536KiB time=00:00:02.56 bitrate=4902.4kbits/s speed=0.0989x elapsed=0:00:25.95    \nframe=  159 fps=6.0 q=32.0 size=    1536KiB time=00:00:02.65 bitrate=4748.3kbits/s speed=0.0995x elapsed=0:00:26.63    \nframe=  163 fps=6.0 q=33.0 size=    1536KiB time=00:00:02.71 bitrate=4631.7kbits/s speed=0.0997x elapsed=0:00:27.26    \nframe=  166 fps=5.9 q=33.0 size=    1536KiB time=00:00:02.76 bitrate=4548.0kbits/s speed=0.0991x elapsed=0:00:27.90    \nframe=  169 fps=5.9 q=33.0 size=    1536KiB time=00:00:02.81 bitrate=4467.3kbits/s speed=0.099x elapsed=0:00:28.44    \nframe=  173 fps=6.0 q=32.0 size=    1536KiB time=00:00:02.88 bitrate=4364.0kbits/s speed=0.0995x elapsed=0:00:28.99    \nframe=  176 fps=6.0 q=20.0 size=    1536KiB time=00:00:02.93 bitrate=4289.6kbits/s speed=0.0993x elapsed=0:00:29.54    \nframe=  180 fps=6.0 q=33.0 size=    1536KiB time=00:00:03.00 bitrate=4194.3kbits/s speed=0.0997x elapsed=0:00:30.09    \nframe=  184 fps=6.0 q=33.0 size=    1536KiB time=00:00:03.05 bitrate=4125.5kbits/s speed=0.0997x elapsed=0:00:30.60    \nframe=  187 fps=6.0 q=34.0 size=    1536KiB time=00:00:03.11 bitrate=4037.3kbits/s speed=0.0998x elapsed=0:00:31.23    \nframe=  191 fps=6.0 q=33.0 size=    1536KiB time=00:00:03.18 bitrate=3952.7kbits/s speed= 0.1x elapsed=0:00:31.75    \nframe=  195 fps=6.0 q=33.0 size=    1536KiB time=00:00:03.25 bitrate=3871.7kbits/s speed=0.101x elapsed=0:00:32.33    \nframe=  199 fps=6.0 q=33.0 size=    1536KiB time=00:00:03.31 bitrate=3793.8kbits/s speed=0.101x elapsed=0:00:32.90    \nframe=  202 fps=6.0 q=34.0 size=    1536KiB time=00:00:03.36 bitrate=3737.5kbits/s speed=0.101x elapsed=0:00:33.46    \nframe=  206 fps=6.1 q=22.0 size=    1536KiB time=00:00:03.43 bitrate=3664.9kbits/s speed=0.101x elapsed=0:00:33.97    \nframe=  209 fps=6.1 q=37.0 size=    1536KiB time=00:00:03.48 bitrate=3612.3kbits/s speed=0.101x elapsed=0:00:34.53    \nframe=  212 fps=6.1 q=24.0 size=    1536KiB time=00:00:03.51 bitrate=3578.1kbits/s speed= 0.1x elapsed=0:00:35.04    \nframe=  215 fps=6.0 q=38.0 size=    1536KiB time=00:00:03.56 bitrate=3527.9kbits/s speed= 0.1x elapsed=0:00:35.59    \nframe=  217 fps=6.0 q=39.0 size=    1536KiB time=00:00:03.61 bitrate=3479.1kbits/s speed=0.0998x elapsed=0:00:36.24    \nframe=  220 fps=6.0 q=40.0 size=    1536KiB time=00:00:03.66 bitrate=3431.7kbits/s speed=0.0995x elapsed=0:00:36.84    \nframe=  223 fps=6.0 q=40.0 size=    1536KiB time=00:00:03.71 bitrate=3385.5kbits/s speed=0.0994x elapsed=0:00:37.38    \nframe=  227 fps=6.0 q=41.0 size=    1536KiB time=00:00:03.78 bitrate=3325.9kbits/s speed=0.0998x elapsed=0:00:37.91    \nframe=  230 fps=6.0 q=29.0 size=    1536KiB time=00:00:03.83 bitrate=3282.5kbits/s speed=0.0997x elapsed=0:00:38.43    \nframe=  233 fps=6.0 q=42.0 size=    1536KiB time=00:00:03.88 bitrate=3240.2kbits/s speed=0.0996x elapsed=0:00:38.97    \nframe=  237 fps=6.0 q=41.0 size=    1536KiB time=00:00:03.95 bitrate=3185.5kbits/s speed= 0.1x elapsed=0:00:39.50    \nframe=  240 fps=6.0 q=40.0 size=    1536KiB time=00:00:04.00 bitrate=3145.7kbits/s speed=0.0997x elapsed=0:00:40.12    \nframe=  243 fps=6.0 q=41.0 size=    1536KiB time=00:00:04.05 bitrate=3106.9kbits/s speed=0.0994x elapsed=0:00:40.73    \nframe=  247 fps=6.0 q=40.0 size=    1536KiB time=00:00:04.11 bitrate=3056.6kbits/s speed=0.0995x elapsed=0:00:41.36    \nframe=  250 fps=6.0 q=37.0 size=    1536KiB time=00:00:04.16 bitrate=3019.9kbits/s speed=0.0993x elapsed=0:00:41.95    \nframe=  254 fps=6.0 q=36.0 size=    1536KiB time=00:00:04.23 bitrate=2972.3kbits/s speed=0.0997x elapsed=0:00:42.47    \nframe=  258 fps=6.0 q=33.0 size=    3328KiB time=00:00:04.30 bitrate=6340.2kbits/s speed=0.0999x elapsed=0:00:43.04    \nframe=  263 fps=6.0 q=32.0 size=    3328KiB time=00:00:04.38 bitrate=6219.7kbits/s speed=0.101x elapsed=0:00:43.58    \nframe=  267 fps=6.1 q=32.0 size=    3328KiB time=00:00:04.45 bitrate=6126.5kbits/s speed=0.101x elapsed=0:00:44.10    \nframe=  271 fps=6.1 q=33.0 size=    3328KiB time=00:00:04.51 bitrate=6036.1kbits/s speed=0.101x elapsed=0:00:44.64    \nframe=  276 fps=6.1 q=31.0 size=    3328KiB time=00:00:04.60 bitrate=5926.7kbits/s speed=0.102x elapsed=0:00:45.23    \nframe=  276 fps=6.0 q=31.0 size=    3328KiB time=00:00:04.60 bitrate=5926.7kbits/s speed= 0.1x elapsed=0:00:45.80    \nframe=  276 fps=5.9 q=31.0 size=    3328KiB time=00:00:04.60 bitrate=5926.7kbits/s speed=0.0991x elapsed=0:00:46.41    \nframe=  276 fps=5.9 q=31.0 size=    3328KiB time=00:00:04.60 bitrate=5926.7kbits/s speed=0.098x elapsed=0:00:46.95    \nframe=  276 fps=5.8 q=31.0 size=    3328KiB time=00:00:04.60 bitrate=5926.7kbits/s speed=0.0969x elapsed=0:00:47.48    \nframe=  276 fps=5.7 q=31.0 size=    3328KiB time=00:00:04.60 bitrate=5926.7kbits/s speed=0.0958x elapsed=0:00:48.00    \n[out#0/webm @ 000002a8951e9780] video:4130KiB audio:0KiB subtitle:0KiB other streams:0KiB global headers:0KiB muxing overhead: 0.067680%\nframe=  300 fps=6.2 q=29.0 Lsize=    4132KiB time=00:00:05.00 bitrate=6770.6kbits/s speed=0.103x elapsed=0:00:48.37    \n",
  "seconds": 48.74836778640747,
  "probe_out": {}
}